<?xml version="1.0" encoding="utf-8" ?><svg xmlns="http://www.w3.org/2000/svg" xmlns:xlink="http://www.w3.org/1999/xlink" width="1024" height="1280" viewBox="0 0 1024 1280"><defs><linearGradient id="gradient_0" gradientUnits="userSpaceOnUse" x1="461.11945" y1="812.26727" x2="200.1687" y2="1030.8452"><stop offset="0" stop-color="#AB3A39"/><stop offset="1" stop-color="#CB483F"/></linearGradient></defs><path fill="url(#gradient_0)" d="M0 0L161.446 0L240.828 0L884.671 0L1024 0L1024 1.0551L1024 7.90933L1024 17.4498L1024 35.4746L1024 52.3362L1024 66.3796L1024 126.721L1024 156.077L1024 189.169L1024 193.41L1024 355.227L1024 528.326L1024 559.307L1024 746.535L1024 785.044L1024 864.7L1024 1039.68L1024 1065.95L1024 1122.24L1024 1148.18L1024 1205.68L1024 1280L895.494 1280L837.285 1280L689.71 1280L625.093 1280L452.165 1280L407.351 1280L393.153 1280L376.441 1280L345.956 1280L310.734 1280L284.372 1280L271.752 1280L252.328 1280L226.268 1280L0 1280L0 767.21L0 738.089L0 693.354L0 688.28L0 606.476L0 587.957L0 582.408L0 473.937L0 472.299L0 456.193L0 362.174L0 342.122L0 193.45L0 144.38L0 121.571L0 77.7892L0 0Z"/><path fill="#FAC03E" d="M0 0L161.446 0L240.828 0L884.671 0L1024 0L1024 1.0551L1024 7.90933L1024 17.4498L1024 35.4746L1024 52.3362L1024 66.3796L1024 126.721L1024 156.077L1024 189.169L1024 193.41L1024 355.227L1024 528.326L1024 559.307L1024 746.535L1024 785.044L1024 864.7C1007.46 865.318 990.443 865.11 973.853 865.225L888.168 865.649C855.867 865.673 818.687 866.76 786.878 865.688C782.255 866.42 764.398 865.897 758.806 865.833C748.378 866.532 734.972 866.231 724.304 866.276L664.842 866.497C612.713 866.676 559.135 867.417 507.1 866.951C506.516 855.276 507.005 839.217 507.003 827.143L507.011 749.674L506.999 516.633L506.89 375.149C524.53 367.929 545.09 361.365 563.725 354.009L563.42 353.197C549.091 348.624 534.083 341.871 519.677 336.519L417.743 299.321C277.799 249.571 138.538 197.919 0 144.38L0 121.571L0 77.7892L0 0Z"/><path fill="#FAC03E" d="M863.076 405.385C865.747 404.2 876.488 401.203 880.155 400.02C895.537 394.93 910.994 390.067 926.52 385.433C959.061 375.502 991.079 364.541 1024 355.227L1024 528.326L1024 559.307L1024 746.535L1024 785.044L1024 864.7C1007.46 865.318 990.443 865.11 973.853 865.225L888.168 865.649C855.867 865.673 818.687 866.76 786.878 865.688C782.255 866.42 764.398 865.897 758.806 865.833C748.378 866.532 734.972 866.231 724.304 866.276L664.842 866.497C612.713 866.676 559.135 867.417 507.1 866.951C506.516 855.276 507.005 839.217 507.003 827.143L507.011 749.674L506.999 516.633C517.484 512.971 530.774 509.437 541.741 505.937L642.859 474.121L862.038 405.459L862.147 405.076L863.076 405.385Z"/><path fill="#FAC03E" d="M1024 785.044L1024 864.7C1007.46 865.318 990.443 865.11 973.853 865.225L888.168 865.649C855.867 865.673 818.687 866.76 786.878 865.688C818.682 851.692 843.214 843.037 875.494 831.64C924.463 814.459 973.993 798.919 1024 785.044Z"/><path fill="#F8EADB" d="M1024 528.326L1024 559.307C946.565 586.505 872.773 626.611 795.277 656.006C751.97 672.724 708.053 687.816 663.617 701.249C650.291 705.511 636.895 709.551 623.435 713.367C616.151 715.438 602.21 718.958 595.883 721.586L595.078 720.358C600.059 719.044 609.45 715.252 614.595 713.287L656.461 696.869C781.174 649.305 900.235 579.029 1024 528.326Z"/><path fill="#F8EADB" d="M758.806 865.833C763.381 862.092 794.56 845.999 801.465 842.413C873.992 804.752 947.612 775.097 1024 746.535L1024 785.044C973.993 798.919 924.463 814.459 875.494 831.64C843.214 843.037 818.682 851.692 786.878 865.688C782.255 866.42 764.398 865.897 758.806 865.833Z"/><path fill="#52452F" d="M862.147 405.076L863.076 405.385C863.506 410.53 863.493 415.703 863.037 420.846C861.983 415.423 862.018 410.987 862.038 405.459L862.147 405.076Z"/><path fill="#FDE1A4" d="M595.078 720.358L595.883 721.586C593.004 722.468 590.976 723.287 587.956 723.301C589.059 722.059 593.252 720.963 595.078 720.358Z"/><path fill="#F8EADB" d="M0 77.7892L1.94472 78.2178L6.51199 79.9399L342.594 222.411C359.68 229.943 376.851 237.282 394.103 244.425C438.878 263.366 483.905 281.708 529.17 299.446C547.342 306.666 572.633 317.71 590.486 323.769C590.304 331.281 589.874 344.976 590.57 352.135C590.963 344.594 590.719 335.718 590.682 328.071C607.439 322.953 625.486 316.261 642.309 310.742C695.005 293.456 747.641 274.162 800.833 258.579C818.734 253.335 839.554 245.493 857.702 242.313C859.351 241.32 861.479 239.325 863.148 238.129C884.533 222.801 906.304 207.218 928.9 193.741C940.793 186.648 948.262 177.599 958.354 168.328C966.298 161.03 974.586 154.222 982.524 146.905C980.276 151.918 972.074 164.388 971.282 167.523C968.273 179.428 964.561 192.422 960.828 204.158L969.677 202.766C970.404 201.741 972.416 192.81 972.729 191.18C975.917 174.54 981.501 160.196 988.175 144.74L990.508 146.616C988.484 153.912 978.816 192.699 978.804 198.859C980.859 199.205 981.328 198.948 983.421 198.437C984.453 198.22 988.488 197.435 988.688 196.615C994.026 174.874 1000.23 153.321 1005.76 131.588C1008.02 122.715 1011.07 110.141 1016.22 102.727C1015.69 130.896 1004.34 166.302 998.109 193.947L999.03 194.832C1001.93 193.942 1004.44 193.33 1007.39 192.63C1012.9 190.104 1012.41 195.081 1017.98 190.656C1019.52 189.554 1022.03 189.449 1024 189.169L1024 193.41L1024 355.227C991.079 364.541 959.061 375.502 926.52 385.433C910.994 390.067 895.537 394.93 880.155 400.02C876.488 401.203 865.747 404.2 863.076 405.385L862.147 405.076L862.038 405.459L642.859 474.121L541.741 505.937C530.774 509.437 517.484 512.971 506.999 516.633L506.89 375.149C524.53 367.929 545.09 361.365 563.725 354.009L563.42 353.197C549.091 348.624 534.083 341.871 519.677 336.519L417.743 299.321C277.799 249.571 138.538 197.919 0 144.38L0 121.571L0 77.7892Z"/><path fill="#F8EADB" d="M983.421 198.437C984.453 198.22 988.488 197.435 988.688 196.615C994.026 174.874 1000.23 153.321 1005.76 131.588C1008.02 122.715 1011.07 110.141 1016.22 102.727C1015.69 130.896 1004.34 166.302 998.109 193.947L999.03 194.832C1001.93 193.942 1004.44 193.33 1007.39 192.63C1012.9 190.104 1012.41 195.081 1017.98 190.656C1019.52 189.554 1022.03 189.449 1024 189.169L1024 193.41L1024 355.227C991.079 364.541 959.061 375.502 926.52 385.433C910.994 390.067 895.537 394.93 880.155 400.02C876.488 401.203 865.747 404.2 863.076 405.385C863.973 346.869 877.014 308.351 906.732 259.176C915.855 243.926 925.56 229.031 935.825 214.524C940.617 213.402 945.38 212.045 950.128 210.739C940.613 238.591 933.993 269.211 927.464 297.987C926.124 303.895 921.908 318.903 921.673 324.524C924.503 320.49 931.567 292.054 934.034 284.982C942.911 259.528 949.777 233.521 959.603 208.308L969.18 205.893L969.677 202.766C970.404 201.741 972.416 192.81 972.729 191.18C975.917 174.54 981.501 160.196 988.175 144.74L990.508 146.616C988.484 153.912 978.816 192.699 978.804 198.859C980.859 199.205 981.328 198.948 983.421 198.437Z"/><path fill="#365777" d="M983.421 198.437C984.453 198.22 988.488 197.435 988.688 196.615C994.026 174.874 1000.23 153.321 1005.76 131.588C1008.02 122.715 1011.07 110.141 1016.22 102.727C1015.69 130.896 1004.34 166.302 998.109 193.947L999.03 194.832C998.507 195.546 997.917 196.125 997.258 196.714L997.095 198.312C994.322 204.31 992.018 213.383 990.111 219.946C985.352 236.748 980.88 253.628 976.696 270.582C975.829 274.084 971.064 295.632 969.918 297.187C969.491 294.751 971.061 288.395 971.59 285.679C976.5 260.494 980.524 235.082 986.157 210.05C986.677 207.739 988.072 204.357 987.508 202.215C985.597 201.305 985.857 201.689 983.301 202.089L983.268 201.16L983.99 201.246C984.883 200.63 985.623 200.148 986.551 199.586L986.837 199.961L986.778 199.461C985.248 199.269 984.802 199.124 983.421 198.437Z"/><defs><linearGradient id="gradient_1" gradientUnits="userSpaceOnUse" x1="983.60236" y1="232.45595" x2="959.33917" y2="229.88014"><stop offset="0" stop-color="#3F4664"/><stop offset="1" stop-color="#2A4D81"/></linearGradient></defs><path fill="url(#gradient_1)" d="M988.175 144.74L990.508 146.616C988.484 153.912 978.816 192.699 978.804 198.859C980.859 199.205 981.328 198.948 983.421 198.437C984.802 199.124 985.248 199.269 986.778 199.461L986.837 199.961L986.551 199.586C985.623 200.148 984.883 200.63 983.99 201.246L983.268 201.16L983.301 202.089C981.184 202.727 979.908 203.042 977.734 203.437C973.472 219.678 969.415 235.972 965.563 252.314C963.496 261.106 952.505 315.359 950.074 318.543C953.699 294.707 957.556 270.906 961.645 247.144C963.548 235.782 966.289 216.737 969.18 205.893L969.677 202.766C970.404 201.741 972.416 192.81 972.729 191.18C975.917 174.54 981.501 160.196 988.175 144.74Z"/><path fill="#233859" d="M1017.98 190.656C1019.52 189.554 1022.03 189.449 1024 189.169L1024 193.41C1020.09 194.333 1016.16 195.157 1012.2 195.882C1008.48 213.904 1005.34 229.381 1002.94 247.636C1002.28 252.658 999.519 276.031 998.564 279.163L997.502 279.27C999.76 251.8 1002.88 224.406 1006.84 197.13C1003.23 197.73 1000.75 198.048 997.095 198.312L997.258 196.714C997.917 196.125 998.507 195.546 999.03 194.832C1001.93 193.942 1004.44 193.33 1007.39 192.63C1012.9 190.104 1012.41 195.081 1017.98 190.656Z"/><path fill="#4F5056" d="M997.502 279.27L998.564 279.163C998.45 282.18 997.959 287.708 996.916 290.421L996.503 289.521L997.302 289.429L997.387 289.103L996.474 288.569C996.466 286.57 997.219 281.508 997.502 279.27Z"/><path fill="#C73B39" d="M0 77.7892L1.94472 78.2178L6.51199 79.9399L342.594 222.411C359.68 229.943 376.851 237.282 394.103 244.425C438.878 263.366 483.905 281.708 529.17 299.446C547.342 306.666 572.633 317.71 590.486 323.769C590.304 331.281 589.874 344.976 590.57 352.135C576.901 347.199 562.873 340.994 549.104 335.796L344.364 256.341L212.333 205.883L0 121.571L0 77.7892Z"/><path fill="#365777" d="M857.702 242.313C859.351 241.32 861.479 239.325 863.148 238.129C884.533 222.801 906.304 207.218 928.9 193.741C940.793 186.648 948.262 177.599 958.354 168.328C966.298 161.03 974.586 154.222 982.524 146.905C980.276 151.918 972.074 164.388 971.282 167.523C968.273 179.428 964.561 192.422 960.828 204.158L969.677 202.766L969.18 205.893L959.603 208.308C949.777 233.521 942.911 259.528 934.034 284.982C931.567 292.054 924.503 320.49 921.673 324.524C921.908 318.903 926.124 303.895 927.464 297.987C933.993 269.211 940.613 238.591 950.128 210.739C945.38 212.045 940.617 213.402 935.825 214.524C925.56 229.031 915.855 243.926 906.732 259.176C877.014 308.351 863.973 346.869 863.076 405.385L862.147 405.076C861.35 344.799 880.397 271.628 914.095 221.483C908.201 224.018 904.559 225.31 898.489 227.174C895.244 229.34 890.871 231.543 886.999 232.131C882.746 234.012 876.659 238.784 872.621 241.605L846.501 259.879L800.271 292.402C789.928 299.602 777.685 307.697 767.778 315.265C771.937 308.911 780.437 302.553 786.445 297.607C801.573 285.337 816.931 273.354 832.512 261.663C837.842 257.649 853.615 246.333 857.702 242.313Z"/><path fill="#FAC03E" d="M886.999 232.131C890.338 229.063 897.365 224.093 901.261 221.147C910.578 214.019 919.997 207.025 929.516 200.169C925.045 206.093 920.697 212.109 916.474 218.213C912.612 220.082 901.264 225.039 898.489 227.174C895.244 229.34 890.871 231.543 886.999 232.131Z"/><path fill="#FAC03E" d="M958.751 183.578L959.104 183.918C959.782 186.107 952.743 203.357 951.407 206.858C947.47 208.103 943.518 209.301 939.552 210.452L939.227 210.053C940.315 207.04 955.809 187.203 958.751 183.578Z"/><path fill="#EA9F63" d="M563.42 353.197C571.458 355.811 579.814 360.058 587.121 364.167C579.219 360.715 571.757 357.79 563.725 354.009L563.42 353.197Z"/><path fill="#FAC03E" d="M0 0L161.446 0L240.828 0L884.671 0C755.878 48.711 628.042 99.9154 501.235 153.584L395.573 197.972C384.941 202.536 351.628 216.594 342.594 222.411L6.51199 79.9399L1.94472 78.2178L0 77.7892L0 0Z"/><path fill="#FAC03E" d="M0 0L161.446 0C153.309 4.41094 143.777 8.64775 135.383 12.8004C108.155 26.1911 80.7754 39.2723 53.2502 52.0413C43.2336 56.7666 9.06791 71.8692 1.94472 78.2178L0 77.7892L0 0Z"/><path fill="#F8EADB" d="M161.446 0L240.828 0C234.951 3.63516 209.167 12.3529 201.473 15.2859C137.693 39.5981 71.499 58.8616 6.51199 79.9399L1.94472 78.2178C9.06791 71.8692 43.2336 56.7666 53.2502 52.0413C80.7754 39.2723 108.155 26.1911 135.383 12.8004C143.777 8.64775 153.309 4.41094 161.446 0Z"/><path fill="#F8EADB" d="M884.671 0L1024 0L1024 1.0551L1024 7.90933L1024 17.4498L1024 35.4746C1011.77 36.7208 999.56 38.08 987.359 39.5521C983.798 39.9815 973.876 40.9662 970.821 41.6806C964.555 44.5141 951.777 48.4482 944.838 50.8221L895.506 67.6906L751.034 117.709L483.21 212.925C453.79 223.33 423.628 234.576 394.103 244.425C376.851 237.282 359.68 229.943 342.594 222.411C351.628 216.594 384.941 202.536 395.573 197.972L501.235 153.584C628.042 99.9154 755.878 48.711 884.671 0Z"/><path fill="#365777" d="M1024 17.4498L1024 35.4746C1011.77 36.7208 999.56 38.08 987.359 39.5521C983.798 39.9815 973.876 40.9662 970.821 41.6806C936.792 44.2118 902.022 50.5078 868.014 53.7358C862.695 54.2407 837.731 58.0041 834.404 57.232C897.328 43.0144 961.53 32.1363 1024 17.4498Z"/><path fill="#365777" d="M860.644 26.4768C876.4 24.3708 894.303 21.0893 910.124 18.5611C947.995 12.1717 985.958 6.33579 1024 1.0551L1024 7.90933C989.483 12.6549 954.919 17.0541 920.314 21.1064C901.63 23.3472 880.256 26.1644 861.556 27.7644L860.644 26.4768Z"/><path fill="#4F5056" d="M860.644 26.4768L861.556 27.7644C858.61 28.205 856.296 28.4684 853.325 28.6923L852.799 27.9843L851.943 28.443C854.023 27.1983 858.072 26.8705 860.644 26.4768Z"/><path fill="#365777" d="M805.258 110.29L1024 52.3362L1024 66.3796C1002.32 72.2859 979.755 76.7937 957.787 81.935C913.785 92.2333 868.998 99.6356 824.776 108.976C818.108 110.385 811.112 111.237 804.52 112.765L805.258 110.29Z"/><path fill="#365777" d="M1024 126.721L1024 156.077L1024 189.169C1022.03 189.449 1019.52 189.554 1017.98 190.656C1012.41 195.081 1012.9 190.104 1007.39 192.63C1009.75 181.318 1013.11 169.396 1015.97 158.12C1018.46 148.303 1020.96 136.214 1024 126.721Z"/><path fill="#FAC03E" d="M1024 156.077L1024 189.169C1022.03 189.449 1019.52 189.554 1017.98 190.656C1016.31 190.757 1015.11 191.06 1013.74 190.19C1017.11 178.991 1020.38 167.13 1024 156.077Z"/><path fill="#4F5056" d="M995.845 130.304C993.901 135.686 992.121 141.126 990.508 146.616L988.175 144.74C990.499 138.951 992.307 135.488 995.845 130.304Z"/><path fill="#52452F" d="M804.52 112.765C799.382 113.568 794.78 114.845 789.541 115.09L789.587 114.739C794.8 113.219 800.024 111.736 805.258 110.29L804.52 112.765Z"/><path fill="#365777" d="M760.012 184.176C808.137 164.22 855.717 142.991 904.189 123.894C941.784 109.082 980.74 96.6683 1019.79 86.1994C1017.6 89.3959 1015.43 93.1285 1011.82 94.7599C973.514 112.054 932.62 125.768 892.945 139.382C849.119 154.42 806.217 170.962 762.576 186.254C760.802 185.78 761.384 185.975 760.012 184.176Z"/><path fill="#365777" d="M1000.77 110.935C999.136 115.945 997.943 118.358 992.978 120.736C982.812 125.604 972.192 129.617 961.782 133.935C945.749 140.673 929.765 147.525 913.83 154.491C884.537 167.361 855.319 180.233 825.927 192.875C803.675 202.445 782.217 214.221 760.21 224.309L760.076 222.716C809.465 194.846 863.145 169.462 914.211 144.555C927.647 138.001 942.917 133.165 956.664 127.21C969.742 122.091 987.434 114.592 1000.77 110.935Z"/><path fill="#365777" d="M803.459 240.367C827.392 224.449 853.089 209.813 877.833 195.125C914.139 173.267 950.784 151.976 987.753 131.259C979.211 142.826 966.592 150.158 954.656 158.051C933.534 171.806 911.881 184.73 889.748 196.792C861.206 212.024 832.277 225.691 804.143 242.076L803.459 240.367Z"/><path fill="#52452F" d="M762.576 186.254C751.96 189.66 726.959 199.535 717.818 201.496C726.063 197.05 750.403 188.022 760.012 184.176C761.384 185.975 760.802 185.78 762.576 186.254Z"/><path fill="#52452F" d="M803.459 240.367L804.143 242.076C799.769 244.693 794.818 247.89 790.147 249.759C790.403 248.596 801.582 241.582 803.459 240.367Z"/><path fill="#52452F" d="M760.076 222.716L760.21 224.309C756.877 225.959 751.146 228.99 747.709 229.756C751.919 226.832 755.555 225.045 760.076 222.716Z"/><path fill="#C73B39" d="M0 144.38C138.538 197.919 277.799 249.571 417.743 299.321L519.677 336.519C534.083 341.871 549.091 348.624 563.42 353.197L563.725 354.009C545.09 361.365 524.53 367.929 506.89 375.149L506.999 516.633L507.011 749.674L507.003 827.143C507.005 839.217 506.516 855.276 507.1 866.951C508.124 908.303 506.884 953.648 507.038 995.438C503.331 994.199 493.658 993.983 488.991 993.611C488.491 976.286 489.172 958.264 488.949 940.884C488.843 932.632 489.3 922.073 488.357 914.046C488.204 932.077 488.174 950.109 488.266 968.14C488.279 973.516 488.682 989.146 488.001 993.93C485.897 994.361 485.984 994.302 483.853 993.805L483.063 992.707C479.069 992.105 455.429 992.518 449.884 992.53L379.696 992.528C374.822 992.54 356.424 992.938 352.593 991.838C348.968 990.914 343.903 991.362 340.153 991.756C336.395 992.539 312.134 992.479 307.289 992.492C280.399 992.526 253.509 992.387 226.621 992.075C226.653 984.087 226.866 975.227 226.422 967.328C225.849 974.586 226.119 983.889 226.148 991.324C220.465 991.411 210.635 993.552 210.586 986.02C211.103 976.873 210.783 964.596 210.787 955.141L210.713 897.414L201.592 897.34C205.252 896.586 206.387 897.613 209.897 896.586C211.274 894.809 210.816 895.212 210.836 892.389C210.017 861.571 211.914 827.285 210.463 796.996L210.399 792.491C210.834 783.915 211.313 699.307 210.088 696.464C210.822 695.042 210.614 692.877 210.61 691.179C211.435 660.092 210.87 624.342 210.686 593.143L210.691 587.937L57.1444 584.206L51.4001 583.603L50.9686 582.475C48.2617 583.689 35.1843 589.756 33.1575 589.704C30.7827 588.098 4.66481 588.067 0 587.957L0 582.408L0 473.937L0 472.299L0 456.193L0 362.174L0 342.122L0 193.45L0 144.38Z"/><path fill="#792023" d="M0 342.122L248.23 359.68L330.417 366.003C346.056 367.283 371.385 369.766 386.643 370.009C422.565 372.202 460.255 376.406 496.529 379.224C490.462 382.416 469.374 388.808 467.044 390.59L463.711 390.538C461.788 390.186 458.309 389.985 456.246 389.799C455.401 389.612 451.181 389.503 450.062 389.454L445.513 389.163C444.69 388.88 439.312 388.863 438.118 388.848C435.715 388.575 433.22 388.386 430.804 388.169L424.678 388.1L417.226 387.526C415.482 387.468 413.551 387.245 411.799 387.086L405.608 386.602C404.545 389.539 405.162 412.867 405.055 418.197L399.428 420.4L399.496 386.321C397.437 385.679 394.096 385.744 391.836 385.668L386.11 385.622L378.898 385.005C376.644 385.041 375.777 384.953 373.544 384.613L367.448 384.115C365.669 383.553 362.061 383.797 360.042 383.831L353.084 383.789C351.134 383.524 348.539 383.417 346.525 383.271L341.814 382.821L340.478 383.382C339.665 386.722 339.985 399.246 339.989 403.267L340 446.743L333.824 449.822L333.984 473.904L326.17 473.739C325.633 468.384 325.927 458.32 325.942 452.585L320.107 454.627L320.079 473.38L312.169 472.919L312.16 458.456L306.76 461.264C306.788 464.216 306.99 469.841 306.612 472.531C303.932 472.224 302.047 472.017 299.383 471.393L298.876 471.393C298.1 471.475 296.454 471.427 295.601 471.429C293.922 469.857 294.456 470.369 294.158 467.39L293.931 467.405L293.75 470.362C292.771 471.167 293.335 470.995 292.13 471.103C289.11 471.1 286.248 471.244 283.235 471.39C281.491 474.084 263.47 482.666 261.033 485.536L261.34 486.139C257.513 485.513 229.658 484.242 226.013 484.652C225.689 486.058 225.96 485.919 226.641 487.548C226.929 492.7 226.985 500.643 226.293 505.814L226.241 509.733C224.282 502.843 227.58 494.2 224.801 487.276C223.175 483.223 213.707 483.591 211.754 485.555C211.652 488.236 211.687 499.226 211.028 500.731L210.676 501.039C210.534 505.014 210.431 508.516 210.542 512.488C210.704 537.358 211.107 563.13 210.691 587.937L57.1444 584.206L51.4001 583.603L50.9686 582.475C48.2617 583.689 35.1843 589.756 33.1575 589.704C30.7827 588.098 4.66481 588.067 0 587.957L0 582.408L0 473.937L0 472.299L0 456.193L0 362.174L0 342.122Z"/><path fill="#EA9F63" d="M0 473.937C7.07168 474.457 14.147 474.926 21.2254 475.345C23.3653 473.742 28.0589 474.246 31.1142 474.218C36.1574 474.524 49.4545 475.09 53.9248 476.113L54.7673 477.331C73.8828 479.681 97.9791 479.74 117.558 481.195C125.011 481.748 147.213 483.442 152.841 483.107C156.266 481.564 163.32 481.794 167.249 481.782C173.67 481.799 206.966 482.319 211.097 484.063L211.754 485.555C211.652 488.236 211.687 499.226 211.028 500.731L210.676 501.039C210.534 505.014 210.431 508.516 210.542 512.488C210.704 537.358 211.107 563.13 210.691 587.937L57.1444 584.206L51.4001 583.603L50.9686 582.475C48.2617 583.689 35.1843 589.756 33.1575 589.704C30.7827 588.098 4.66481 588.067 0 587.957L0 582.408L0 473.937Z"/><path fill="#F8EADB" d="M51.4001 583.603C55.0376 580.829 84.126 568.252 90.6047 565.332C130.364 547.223 170.346 529.607 210.542 512.488C210.704 537.358 211.107 563.13 210.691 587.937L57.1444 584.206L51.4001 583.603Z"/><path fill="#EA9F63" d="M0 473.937C7.07168 474.457 14.147 474.926 21.2254 475.345C23.3653 473.742 28.0589 474.246 31.1142 474.218C36.1574 474.524 49.4545 475.09 53.9248 476.113L54.7673 477.331C52.262 477.568 52.2982 477.111 51.1385 478.49C50.616 487.367 50.9528 498.246 50.983 507.273L51.0897 555.818C51.1012 562.002 51.5183 577.058 50.9686 582.475C48.2617 583.689 35.1843 589.756 33.1575 589.704C30.7827 588.098 4.66481 588.067 0 587.957L0 582.408L0 473.937Z"/><defs><linearGradient id="gradient_2" gradientUnits="userSpaceOnUse" x1="52.838909" y1="530.66522" x2="-1.4323027" y2="534.10626"><stop offset="0" stop-color="#601B21"/><stop offset="1" stop-color="#42142B"/></linearGradient></defs><path fill="url(#gradient_2)" d="M21.2254 475.345C23.3653 473.742 28.0589 474.246 31.1142 474.218C36.1574 474.524 49.4545 475.09 53.9248 476.113L54.7673 477.331C52.262 477.568 52.2982 477.111 51.1385 478.49C50.616 487.367 50.9528 498.246 50.983 507.273L51.0897 555.818C51.1012 562.002 51.5183 577.058 50.9686 582.475C48.2617 583.689 35.1843 589.756 33.1575 589.704C30.7827 588.098 4.66481 588.067 0 587.957L0 582.408C10.7028 582.618 21.7855 583.175 32.5101 583.585L32.5888 476L21.2254 475.345Z"/><path fill="#4A2129" d="M152.841 483.107C156.266 481.564 163.32 481.794 167.249 481.782C173.67 481.799 206.966 482.319 211.097 484.063L211.754 485.555C211.652 488.236 211.687 499.226 211.028 500.731L210.676 501.039C210.398 497.33 210.531 490.317 210.487 486.346C192.129 485.044 170.716 485.019 152.841 483.107Z"/><path fill="#2C202F" d="M325.799 382.069C328.316 382.101 330.736 382.031 333.211 382.469C334.88 382.481 340.805 382.271 341.814 382.821L340.478 383.382C339.665 386.722 339.985 399.246 339.989 403.267L340 446.743L333.824 449.822L333.984 473.904L326.17 473.739C326.343 471.943 326.411 469.48 326.369 467.65C325.718 439.191 326.506 410.499 325.799 382.069Z"/><path fill="#671D23" d="M333.211 382.469C334.88 382.481 340.805 382.271 341.814 382.821L340.478 383.382C339.665 386.722 339.985 399.246 339.989 403.267L340 446.743L333.824 449.822C332.859 427.579 333.172 404.776 333.211 382.469Z"/><path fill="#2C202F" d="M312.469 381.413L320.073 381.931C320.037 406.02 319.789 430.579 320.107 454.627L320.079 473.38L312.169 472.919L312.16 458.456C312.224 449.671 311.069 386.051 312.469 381.413Z"/><path fill="#2C202F" d="M285.584 379.916C287.515 379.937 290.714 379.728 292.292 380.542C294.17 387.545 292.37 398.568 293.05 405.048C294.036 414.43 291.007 461.993 293.931 467.405L293.75 470.362C292.771 471.167 293.335 470.995 292.13 471.103C290.211 470.766 287.516 470.587 285.516 470.39L285.584 379.916Z"/><path fill="#2C202F" d="M299.579 380.685L306.328 381.118L306.236 440.634C306.23 448.813 305.836 464.772 306.612 472.531C303.932 472.224 302.047 472.017 299.383 471.393L299.579 380.685Z"/><path fill="#2C202F" d="M0 362.174C2.27956 362.427 3.22053 362.127 4.73696 363.418C5.53625 382.167 4.43118 403.088 4.75845 422.033C4.84043 426.779 4.8153 453.169 4.07709 455.761C2.32749 456.441 1.83971 456.297 0 456.193L0 362.174Z"/><path fill="#671D23" d="M53.9248 476.113C70.1917 475.961 86.268 479.015 102.741 478.082C110.679 477.633 120.654 480.096 128.776 479.749C137.468 480.254 159.679 480.161 167.249 481.782C163.32 481.794 156.266 481.564 152.841 483.107C147.213 483.442 125.011 481.748 117.558 481.195C97.9791 479.74 73.8828 479.681 54.7673 477.331L53.9248 476.113Z"/><path fill="#671D23" d="M0 472.299C3.3775 472.3 29.4166 473.343 31.1142 474.218C28.0589 474.246 23.3653 473.742 21.2254 475.345C14.147 474.926 7.07168 474.457 0 473.937L0 472.299Z"/><path fill="#EA9F63" d="M294.158 467.39C296.336 466.08 296.298 465.597 298.383 465.677C299.302 467.6 298.981 469.217 298.876 471.393C298.1 471.475 296.454 471.427 295.601 471.429C293.922 469.857 294.456 470.369 294.158 467.39Z"/><path fill="#2C202F" d="M63.6754 366.565L72.1375 366.87L72.4987 460.843L63.6665 460.561L63.6754 366.565Z"/><path fill="#2C202F" d="M150.092 371.855L158.586 371.894C158.306 402.501 157.878 434.865 158.495 465.38C155.529 465.785 153.039 465.325 150.063 464.987C150.276 433.943 150.286 402.898 150.092 371.855Z"/><path fill="#2C202F" d="M135.71 370.915L144.109 371.279C143.066 400.72 143.848 435.182 143.762 464.883L135.44 464.294C136.443 434.887 135.696 400.716 135.71 370.915Z"/><path fill="#2C202F" d="M92.7445 461.887C93.3117 455.945 93.0845 445.759 93.1149 439.501L93.3395 394.565C93.3647 386.702 93.0314 376.741 93.6008 369.093C95.4589 367.768 97.0654 368.149 99.7054 367.997L101.582 369.2C101.819 370.816 101.3 389.93 101.289 393.336C101.284 409.354 101.177 425.372 100.968 441.389C100.912 445.911 101.059 458.444 100.614 462.388L92.7445 461.887Z"/><path fill="#2C202F" d="M163.815 372.458L171.862 372.859L171.459 466.2L163.373 465.918C164.647 437.052 163.806 401.677 163.815 372.458Z"/><path fill="#2C202F" d="M21.8412 363.72L29.9741 363.897L29.8521 458.015L21.9522 457.888C22.5334 426.501 22.4964 395.105 21.8412 363.72Z"/><path fill="#2C202F" d="M109.877 368.988C112.017 369.179 114.226 369.054 115.777 370.403C116.493 378.244 115.692 391.544 115.742 399.892C115.87 420.933 115.389 442.187 115.627 463.239C113.48 463.122 110.051 463.054 108.051 462.678L107.974 395.038C107.971 391.105 107.72 371.686 108.329 369.597L109.877 368.988Z"/><path fill="#2C202F" d="M204.229 375.037C206.714 375.293 209.491 375.454 212.003 375.649L211.89 468.033L203.911 468.004L204.229 375.037Z"/><path fill="#2C202F" d="M79.2127 367.506C81.2595 367.502 84.4972 367.243 86.0938 368.327C86.8804 374.183 86.3895 392.045 86.3722 398.87L86.2101 461.805C83.8402 461.784 81.1512 461.574 78.7587 461.445C78.6407 430.131 78.7921 398.817 79.2127 367.506Z"/><path fill="#2C202F" d="M51.7766 365.584C54.1423 365.654 56.8787 365.978 59.2654 366.2C58.5761 377.313 58.8467 391.008 58.8369 402.248L58.8131 459.982L51.3736 459.997C51.276 428.525 51.4103 397.053 51.7766 365.584Z"/><path fill="#2C202F" d="M218.096 376.08C220.486 375.992 223.196 375.641 225.254 376.661C225.851 378.75 225.629 395.871 225.626 398.773C225.582 421.993 225.401 445.213 225.082 468.431C223.222 468.585 220.058 468.289 218.094 468.168L218.096 376.08Z"/><path fill="#2C202F" d="M258.867 378.765C261.286 378.783 263.784 378.371 265.723 379.557C266.699 382.535 266.515 462.689 266.046 470.592C263.252 470.71 262.209 470.859 259.418 470.297C257.538 466.845 260.006 389.774 258.867 378.765Z"/><path fill="#2C202F" d="M11.1816 363.16C13.6935 363.214 15.3803 363.043 17.6921 364.013C18.539 367.26 18.1856 388.373 18.1794 393.448L18.1697 457.629C15.6492 457.45 13.8659 457.542 11.6088 456.438C10.839 451.282 11.2599 432.956 11.2541 426.596L11.1816 363.16Z"/><path fill="#2C202F" d="M191.212 374.136C193.853 374.183 196.091 373.864 197.853 375.53C198.643 382.791 198.157 398.988 198.14 406.773L197.959 467.583L190.884 467.143C191.161 436.141 191.27 405.139 191.212 374.136Z"/><path fill="#2C202F" d="M121.953 369.979C124.292 369.991 127.234 369.652 128.92 371.054C129.442 375.232 128.872 394.967 128.851 400.076L128.847 463.875C126.631 463.939 124.037 464.342 122.197 463.293C121.339 457.112 122.129 443.626 121.977 436.539C121.516 415.079 123.023 391.227 121.953 369.979Z"/><path fill="#2C202F" d="M271.716 379.459C273.583 379.415 275.818 379.427 277.646 379.298L278.265 379.876C279.825 384.584 278.187 399.269 278.784 404.995C278.906 406.16 278.883 417.604 278.784 418.371C277.999 424.467 280.318 468.841 277.599 471.191C275.809 471.173 273.708 471.391 272.282 470.481C271.599 466.018 272.001 453.076 272.01 447.793L272.015 404.166C272.012 397.11 272.302 386.748 271.772 380.092L271.716 379.459Z"/><path fill="#2C202F" d="M231.895 376.854C234.02 376.882 236.421 376.512 237.987 377.745C238.532 381.536 238.327 390.199 238.334 394.394L238.361 425.149L238.392 454.256C238.392 457.866 238.594 466.256 238.023 469.324C235.919 469.185 233.398 469.3 231.72 468.186C231.004 462.161 231.555 443.959 231.608 436.92L231.895 376.854Z"/><path fill="#2C202F" d="M177.962 373.409L184.396 373.764C184.077 404.775 183.993 435.788 184.145 466.801C181.564 466.787 179.55 467.104 177.67 465.703C177.223 460.128 177.527 450.768 177.554 444.929L177.725 408.292C177.753 401.971 177.313 377.962 177.962 373.409Z"/><path fill="#2C202F" d="M245.61 377.615C247.937 377.678 249.558 377.511 251.655 378.482C252.353 381.75 252.063 401.491 252.059 406.011L252.025 469.987C249.847 470.04 247.828 470.357 245.953 469.419C245.222 464.562 245.535 446.494 245.521 440.69L245.61 377.615Z"/><path fill="#F8EADB" d="M211.754 485.555C213.707 483.591 223.175 483.223 224.801 487.276C227.58 494.2 224.282 502.843 226.241 509.733L226.293 505.814C226.985 500.643 226.929 492.7 226.641 487.548C225.96 485.919 225.689 486.058 226.013 484.652C229.658 484.242 257.513 485.513 261.34 486.139C278.403 486.803 303.043 489.743 319.098 489.28C323.604 489.546 337.237 489.433 339.956 490.857C340.602 492.276 340.447 492.273 340.153 493.848C340.092 503.098 340.506 589.654 339.542 591.42C340.209 593.251 340.135 593.217 340.031 595.064C339.215 596.482 339.787 596.031 338.347 596.564L339.826 597.098C340.58 603.143 340.132 622.002 340.126 628.75L340.065 693.129L340.034 698.208L340.036 764.765C340.035 768.701 340.306 789.926 339.576 792.491L339.092 792.86C340.505 794.301 340.124 793.471 340.381 795.383C339.595 796.759 339.959 796.791 338.637 797.068C332.44 798.365 324.752 797.236 318.605 797.663L232.427 797.251C230.527 797.253 228.054 796.958 226.595 797.971C226.054 808.168 226.412 821.106 226.434 831.577L226.548 892.373C226.537 895.125 226.078 894.826 227.418 896.482C230.393 897.624 233.276 896.554 237.179 897.011C233.493 897.219 230.167 897.376 226.477 897.383C226.497 918.026 227.438 947.395 226.422 967.328C225.849 974.586 226.119 983.889 226.148 991.324C220.465 991.411 210.635 993.552 210.586 986.02C211.103 976.873 210.783 964.596 210.787 955.141L210.713 897.414L201.592 897.34C205.252 896.586 206.387 897.613 209.897 896.586C211.274 894.809 210.816 895.212 210.836 892.389C210.017 861.571 211.914 827.285 210.463 796.996L210.399 792.491C210.834 783.915 211.313 699.307 210.088 696.464C210.822 695.042 210.614 692.877 210.61 691.179C211.435 660.092 210.87 624.342 210.686 593.143L210.691 587.937C211.107 563.13 210.704 537.358 210.542 512.488C210.431 508.516 210.534 505.014 210.676 501.039L211.028 500.731C211.687 499.226 211.652 488.236 211.754 485.555Z"/><path fill="#F8EADB" d="M226.641 487.548C225.96 485.919 225.689 486.058 226.013 484.652C229.658 484.242 257.513 485.513 261.34 486.139C278.403 486.803 303.043 489.743 319.098 489.28C323.604 489.546 337.237 489.433 339.956 490.857C340.602 492.276 340.447 492.273 340.153 493.848C340.092 503.098 340.506 589.654 339.542 591.42C340.209 593.251 340.135 593.217 340.031 595.064C339.215 596.482 339.787 596.031 338.347 596.564C335.326 596.332 332.16 596.349 329.117 596.244C295.897 595.097 262.469 595.239 229.282 593.471L227.855 593.129C226.49 591.635 226.928 591.178 226.695 588.596C226.023 583.952 226.466 571.155 226.37 565.785C226.041 547.346 226.88 528.102 226.241 509.733L226.293 505.814C226.985 500.643 226.929 492.7 226.641 487.548Z"/><path fill="#4A2129" d="M226.695 588.596C263.015 589.827 303.262 591.109 339.542 591.42C340.209 593.251 340.135 593.217 340.031 595.064C339.215 596.482 339.787 596.031 338.347 596.564C335.326 596.332 332.16 596.349 329.117 596.244C295.897 595.097 262.469 595.239 229.282 593.471L227.855 593.129C226.49 591.635 226.928 591.178 226.695 588.596Z"/><path fill="#4A2129" d="M226.641 487.548C225.96 485.919 225.689 486.058 226.013 484.652C229.658 484.242 257.513 485.513 261.34 486.139C278.403 486.803 303.043 489.743 319.098 489.28C323.604 489.546 337.237 489.433 339.956 490.857C340.602 492.276 340.447 492.273 340.153 493.848C312.462 492.038 284.727 491.089 256.959 489.111C250.111 488.15 233.569 487.756 226.641 487.548Z"/><path fill="#EA9F63" d="M226.641 487.548C233.569 487.756 250.111 488.15 256.959 489.111C251.925 491.881 228.038 502.579 226.293 505.814C226.985 500.643 226.929 492.7 226.641 487.548Z"/><path fill="#F8EADB" d="M229.282 593.471C262.469 595.239 295.897 595.097 329.117 596.244C332.16 596.349 335.326 596.332 338.347 596.564L339.826 597.098C340.58 603.143 340.132 622.002 340.126 628.75L340.065 693.129L340.034 698.208C302.317 697.826 264.603 697.215 226.893 696.374C227.06 694.86 226.88 692.731 226.8 691.146C226.018 684.569 226.189 595.414 226.99 593.938L229.282 593.471Z"/><path fill="#4A2129" d="M226.8 691.146C263.409 691.567 303.634 691.708 340.065 693.129L340.034 698.208C302.317 697.826 264.603 697.215 226.893 696.374C227.06 694.86 226.88 692.731 226.8 691.146Z"/><path fill="#8C2324" d="M211.754 485.555C213.707 483.591 223.175 483.223 224.801 487.276C227.58 494.2 224.282 502.843 226.241 509.733C226.88 528.102 226.041 547.346 226.37 565.785C226.466 571.155 226.023 583.952 226.695 588.596C226.928 591.178 226.49 591.635 227.855 593.129L229.282 593.471L226.99 593.938C226.189 595.414 226.018 684.569 226.8 691.146C226.88 692.731 227.06 694.86 226.893 696.374C226.456 701.545 226.645 706.773 226.617 711.962C226.474 738.787 226.936 765.682 226.579 792.498C226.498 795.185 226.071 794.857 227.303 796.617C228.665 796.713 231.33 796.727 232.427 797.251C230.527 797.253 228.054 796.958 226.595 797.971C226.054 808.168 226.412 821.106 226.434 831.577L226.548 892.373C226.537 895.125 226.078 894.826 227.418 896.482C230.393 897.624 233.276 896.554 237.179 897.011C233.493 897.219 230.167 897.376 226.477 897.383C226.497 918.026 227.438 947.395 226.422 967.328C225.849 974.586 226.119 983.889 226.148 991.324C220.465 991.411 210.635 993.552 210.586 986.02C211.103 976.873 210.783 964.596 210.787 955.141L210.713 897.414L201.592 897.34C205.252 896.586 206.387 897.613 209.897 896.586C211.274 894.809 210.816 895.212 210.836 892.389C210.017 861.571 211.914 827.285 210.463 796.996L210.399 792.491C210.834 783.915 211.313 699.307 210.088 696.464C210.822 695.042 210.614 692.877 210.61 691.179C211.435 660.092 210.87 624.342 210.686 593.143L210.691 587.937C211.107 563.13 210.704 537.358 210.542 512.488C210.431 508.516 210.534 505.014 210.676 501.039L211.028 500.731C211.687 499.226 211.652 488.236 211.754 485.555Z"/><path fill="#4A2129" d="M226.579 792.498L299.761 792.777C310.454 792.861 328.886 793.635 339.092 792.86C340.505 794.301 340.124 793.471 340.381 795.383C339.595 796.759 339.959 796.791 338.637 797.068C332.44 798.365 324.752 797.236 318.605 797.663L232.427 797.251C231.33 796.727 228.665 796.713 227.303 796.617C226.071 794.857 226.498 795.185 226.579 792.498Z"/><path fill="#A82D2A" d="M0 193.45C29.4039 220.788 77.4064 246.867 113.55 264.518C187.961 300.856 265.369 329.134 343.954 354.847C352.876 357.761 361.736 360.862 370.528 364.148C375.478 365.978 381.727 368.629 386.643 370.009C371.385 369.766 346.056 367.283 330.417 366.003L248.23 359.68L0 342.122L0 193.45Z"/><path fill="#F8EADB" d="M352.246 597.027C396.012 598.615 439.789 599.849 483.575 600.731C483.747 632.335 483.662 663.939 483.317 695.542C483.626 698.412 482.753 698.599 483.003 700.548C469.532 700.968 453.264 700.268 439.626 699.993C410.606 699.247 381.58 698.825 352.551 698.725C352.603 697.105 352.428 695.229 352.325 693.583C351.835 690.752 351.995 681.877 351.99 678.612L351.974 648.831L351.944 615.639C351.939 610.402 351.676 601.818 352.246 597.027Z"/><path fill="#4A2129" d="M352.325 693.583C395.154 694.077 440.683 694.06 483.317 695.542C483.626 698.412 482.753 698.599 483.003 700.548C469.532 700.968 453.264 700.268 439.626 699.993C410.606 699.247 381.58 698.825 352.551 698.725C352.603 697.105 352.428 695.229 352.325 693.583Z"/><path fill="#F8EADB" d="M352.325 494.187C361.6 495.686 374.615 495.971 384.186 496.345C417.133 497.634 450.333 500.459 483.259 501.355L483.305 595.439C444.425 594.494 403.891 592.635 365.204 592.356C361.607 591.93 355.65 591.975 351.869 591.891C351.186 572.299 351.962 550.829 351.805 531.06C351.736 522.394 351.429 501.681 352.325 494.187Z"/><path fill="#F8EADB" d="M352.735 896.958L483.265 896.69C483.302 926.653 484.293 963.165 483.063 992.707C479.069 992.105 455.429 992.518 449.884 992.53L379.696 992.528C374.822 992.54 356.424 992.938 352.593 991.838C352.229 966.904 352.728 941.842 352.499 916.894C352.438 910.341 352.363 903.472 352.735 896.958Z"/><path fill="#F8EADB" d="M352.471 798.127L483.613 798.519L483.244 892.167L373.862 892.349C367.87 891.84 358.627 892.001 352.392 891.925C351.585 877.921 352.274 858.444 352.197 843.96C352.128 830.96 351.594 810.736 352.471 798.127Z"/><path fill="#F8EADB" d="M352.551 698.725C381.58 698.825 410.606 699.247 439.626 699.993C453.264 700.268 469.532 700.968 483.003 700.548C483.846 704.034 483.481 724.229 483.476 728.849L483.411 793.469L441.423 793.599C432.152 792.991 419.262 793.33 409.789 793.326C390.651 793.381 371.512 793.323 352.374 793.152C351.701 762.756 351.963 729.16 352.551 698.725Z"/><path fill="#F8EADB" d="M339.905 897.054C340.936 926.693 340.114 961.804 340.153 991.756C336.395 992.539 312.134 992.479 307.289 992.492C280.399 992.526 253.509 992.387 226.621 992.075C226.653 984.087 226.866 975.227 226.422 967.328C227.438 947.395 226.497 918.026 226.477 897.383C230.167 897.376 233.493 897.219 237.179 897.011C270.542 897.082 306.829 896.165 339.905 897.054Z"/><path fill="#F8EADB" d="M232.427 797.251L318.605 797.663C325.823 798.125 332.852 797.93 340.08 797.824L339.967 892.036L274.052 892.067C263.422 892.079 248.356 891.642 237.997 892.358L226.548 892.373L226.434 831.577C226.412 821.106 226.054 808.168 226.595 797.971C228.054 796.958 230.527 797.253 232.427 797.251Z"/><path fill="#4A2129" d="M352.325 494.187C351.216 492.161 350.506 493.351 349.154 491.31C353.285 490.829 368.792 491.863 374.355 491.986C381.151 493.116 397.048 493.405 404.494 493.758L455.367 496.464C464.781 496.912 478.832 497.108 487.676 498.144L487.956 757.712L488.094 854.697C488.086 872.541 487.479 896.589 488.357 914.046C488.204 932.077 488.174 950.109 488.266 968.14C488.279 973.516 488.682 989.146 488.001 993.93C485.897 994.361 485.984 994.302 483.853 993.805L483.063 992.707C484.293 963.165 483.302 926.653 483.265 896.69L352.735 896.958C352.85 895.334 352.726 893.871 353.654 892.618C358.06 892.007 368.384 892.571 373.862 892.349L483.244 892.167L483.613 798.519L352.471 798.127C352.463 796.312 352.305 795.471 353.09 793.819C356.301 793.205 372.999 793.775 377.227 793.705C398.268 793.355 420.457 794.386 441.423 793.599L483.411 793.469L483.476 728.849C483.481 724.229 483.846 704.034 483.003 700.548C482.753 698.599 483.626 698.412 483.317 695.542C483.662 663.939 483.747 632.335 483.575 600.731C439.789 599.849 396.012 598.615 352.246 597.027C352.504 594.201 352.026 594.565 353.518 592.762C356.106 591.839 361.641 592.451 365.204 592.356C403.891 592.635 444.425 594.494 483.305 595.439L483.259 501.355C450.333 500.459 417.133 497.634 384.186 496.345C374.615 495.971 361.6 495.686 352.325 494.187Z"/><path fill="#1A2639" d="M346.525 383.271C348.539 383.417 351.134 383.524 353.084 383.789L360.042 383.831L360.083 418.573C360.093 424.032 359.888 432.876 360.424 438.089C360.513 450.374 360.539 462.659 360.502 474.945L353.002 474.886C352.323 470.371 352.776 447.194 352.793 441.555C350.839 442.34 350.294 442.576 348.517 443.679C347.524 445.287 347.44 445.391 347.454 447.251L347.45 452.55L347.459 474.355L339.832 474.035C339.82 464.937 339.876 455.84 340 446.743L339.989 403.267C339.985 399.246 339.665 386.722 340.478 383.382L341.814 382.821L346.525 383.271Z"/><path fill="#2C202F" d="M341.814 382.821L346.525 383.271C346.304 405.423 345.826 430.656 347.45 452.55L347.459 474.355L339.832 474.035C339.82 464.937 339.876 455.84 340 446.743L339.989 403.267C339.985 399.246 339.665 386.722 340.478 383.382L341.814 382.821Z"/><path fill="#671D23" d="M346.525 383.271C348.539 383.417 351.134 383.524 353.084 383.789L353.252 441.94C353.271 451.802 353.705 465.327 353.002 474.886C352.323 470.371 352.776 447.194 352.793 441.555C350.839 442.34 350.294 442.576 348.517 443.679C347.524 445.287 347.44 445.391 347.454 447.251L347.45 452.55C345.826 430.656 346.304 405.423 346.525 383.271Z"/><path fill="#2C202F" d="M360.042 383.831C362.061 383.797 365.669 383.553 367.448 384.115L373.544 384.613C375.777 384.953 376.644 385.041 378.898 385.005C378.95 395.648 379.714 420.074 378.798 430.124L378.611 449.536C376.803 452.756 379.534 471.792 376.895 475.452L375.585 475.586C374.607 474.74 374.746 475.006 374.08 473.952L373.237 475.09C370.448 475.461 368.931 475.219 366.161 474.982C365.351 468.102 365.961 443.381 365.996 435.108L360.424 438.089C359.888 432.876 360.093 424.032 360.083 418.573L360.042 383.831Z"/><path fill="#671D23" d="M360.042 383.831C362.061 383.797 365.669 383.553 367.448 384.115L366.253 384.919C365.655 390.916 366.097 400.291 366.139 406.694L366.371 450.774C366.392 457.14 366.669 468.929 366.161 474.982C365.351 468.102 365.961 443.381 365.996 435.108L360.424 438.089C359.888 432.876 360.093 424.032 360.083 418.573L360.042 383.831Z"/><path fill="#671D23" d="M373.544 384.613C375.777 384.953 376.644 385.041 378.898 385.005C378.95 395.648 379.714 420.074 378.798 430.124C376.417 430.879 375.891 431.141 373.735 432.414C372.893 417.491 373.327 399.603 373.544 384.613Z"/><path fill="#D75B46" d="M373.735 432.414C375.891 431.141 376.417 430.879 378.798 430.124L378.611 449.536C376.803 452.756 379.534 471.792 376.895 475.452L375.585 475.586C374.607 474.74 374.746 475.006 374.08 473.952C373.207 463.392 373.774 443.654 373.735 432.414Z"/><path fill="#2C202F" d="M467.044 390.59C472.928 391.43 482.188 391.984 488.199 391.999L488.174 481.324L480.087 480.897C480.094 472.293 480.666 398.144 479.708 395.978C478.477 395.251 477.93 395.517 476.466 395.691C474.903 397.811 475.707 471.851 475.717 480.669C473.495 480.667 470.716 480.966 468.921 479.873C466.341 468.969 471.078 398.426 467.315 394.486L463.781 394.209L463.539 393.855L463.711 390.538L467.044 390.59Z"/><path fill="#2C202F" d="M438.118 388.848C439.312 388.863 444.69 388.88 445.513 389.163L450.062 389.454C451.181 389.503 455.401 389.612 456.246 389.799L456.762 392.211L456.343 394.711L450.594 397.451C451.134 424.621 450.232 452.22 450.754 479.287L443.18 478.71C441.004 478.495 440.132 478.396 437.971 478.532C438.624 454.445 438.018 427.255 437.996 402.982C437.901 398.355 438.05 393.492 438.118 388.848Z"/><path fill="#C73B39" d="M437.996 402.982C439.572 402.394 441.071 401.528 442.502 401.801C443.302 406.659 442.659 413.61 442.815 418.726C443.246 432.852 442.187 449.219 443.117 463.139L443.18 478.71C441.004 478.495 440.132 478.396 437.971 478.532C438.624 454.445 438.018 427.255 437.996 402.982Z"/><path fill="#671D23" d="M438.118 388.848C439.312 388.863 444.69 388.88 445.513 389.163L443.718 389.733C442.454 392.317 443.833 453.962 443.117 463.139C442.187 449.219 443.246 432.852 442.815 418.726C442.659 413.61 443.302 406.659 442.502 401.801C441.071 401.528 439.572 402.394 437.996 402.982C437.901 398.355 438.05 393.492 438.118 388.848Z"/><path fill="#4A2129" d="M450.062 389.454C451.181 389.503 455.401 389.612 456.246 389.799L456.762 392.211L456.343 394.711L450.594 397.451C450.193 395.964 450.131 391.232 450.062 389.454Z"/><path fill="#1A2639" d="M378.898 385.005L386.11 385.622L391.836 385.668L391.969 423.509C390.085 424.522 388.268 425.564 386.291 426.377L386.367 475.863L378.564 475.574C378.585 467.642 378.936 457.254 378.611 449.536L378.798 430.124C379.714 420.074 378.95 395.648 378.898 385.005Z"/><path fill="#671D23" d="M386.11 385.622L391.836 385.668L391.969 423.509C390.085 424.522 388.268 425.564 386.291 426.377C386.022 412.794 385.961 399.207 386.11 385.622Z"/><path fill="#1A2639" d="M411.799 387.086C413.551 387.245 415.482 387.468 417.226 387.526L424.678 388.1C424.51 408.354 424.449 428.608 424.496 448.862C424.495 454.239 424.133 473.14 424.815 478.037L416.686 477.447L417.112 427.785C416.942 423.025 417.058 417.478 417.049 412.658L411.943 415.253C411.989 405.864 411.941 396.475 411.799 387.086Z"/><path fill="#671D23" d="M411.799 387.086C413.551 387.245 415.482 387.468 417.226 387.526C417.707 396.074 417.957 419.611 417.112 427.785C416.942 423.025 417.058 417.478 417.049 412.658L411.943 415.253C411.989 405.864 411.941 396.475 411.799 387.086Z"/><path fill="#2C202F" d="M391.836 385.668C394.096 385.744 397.437 385.679 399.496 386.321L399.428 420.4L399.638 476.322L391.701 476.052C391.804 458.649 392.1 440.882 391.969 423.509L391.836 385.668Z"/><path fill="#1A2639" d="M456.246 389.799C458.309 389.985 461.788 390.186 463.711 390.538L463.539 393.855L463.781 394.209L463.292 479.998C460.975 480.001 458.242 480.294 456.292 479.289C454.904 475.131 455.785 403.795 456.343 394.711L456.762 392.211L456.246 389.799Z"/><path fill="#1A2639" d="M456.246 389.799C458.309 389.985 461.788 390.186 463.711 390.538L463.539 393.855C461.422 394.449 459.569 394.531 457.494 393.951L456.762 392.211L456.246 389.799Z"/><path fill="#1A2639" d="M430.804 388.169C433.22 388.386 435.715 388.575 438.118 388.848C438.05 393.492 437.901 398.355 437.996 402.982C438.018 427.255 438.624 454.445 437.971 478.532C435.558 478.551 432.63 478.337 430.177 478.227L430.263 445.961C430.927 442.837 430.896 431.943 430.89 428.352C430.871 414.9 430.412 401.647 430.804 388.169Z"/><path fill="#1A2639" d="M405.608 386.602L411.799 387.086C411.941 396.475 411.989 405.864 411.943 415.253L411.985 476.986L404.46 476.859C404.979 457.309 405.178 437.753 405.055 418.197C405.162 412.867 404.545 389.539 405.608 386.602Z"/><path fill="#4A2129" d="M226.548 892.373L237.997 892.358C262.438 893.251 288.543 891.951 313.103 892.422C317.788 892.512 336.493 892.022 339.709 892.897C339.807 894.303 339.928 895.642 339.905 897.054C306.829 896.165 270.542 897.082 237.179 897.011C233.276 896.554 230.393 897.624 227.418 896.482C226.078 894.826 226.537 895.125 226.548 892.373Z"/><path fill="#671D23" d="M424.678 388.1L430.804 388.169C430.412 401.647 430.871 414.9 430.89 428.352C430.896 431.943 430.927 442.837 430.263 445.961C430.055 432.906 430.574 419.64 430.186 406.688L425.048 409.195L425.134 456.599C425.138 460.072 425.352 474.969 424.815 478.037C424.133 473.14 424.495 454.239 424.496 448.862C424.449 428.608 424.51 408.354 424.678 388.1Z"/><path fill="#365777" d="M786.878 865.688C818.687 866.76 855.867 865.673 888.168 865.649L973.853 865.225C990.443 865.11 1007.46 865.318 1024 864.7L1024 1039.68L1024 1065.95L1024 1122.24L1024 1148.18L1024 1205.68L1024 1280L895.494 1280L837.285 1280L789.858 1250.16C783.958 1246.43 767.414 1235.56 761.699 1233.37L755.044 1229.45C742.204 1219.24 718.28 1206.49 703.651 1197.3C668.553 1175.26 632.049 1154.68 597.114 1132.33L646.489 1132.26L646.416 1126.73L646.392 1121.65L646.269 1052.94C646.315 1047.28 646.158 1037.77 646.912 1032.52L646.277 1031.08C642.023 1028.88 625.734 1024.89 620.118 1023.42C600.984 1018.4 581.814 1013.51 562.61 1008.76L527.349 1000.02C521.461 998.567 512.757 996.13 507.038 995.438C506.884 953.648 508.124 908.303 507.1 866.951C559.135 867.417 612.713 866.676 664.842 866.497L724.304 866.276C734.972 866.231 748.378 866.532 758.806 865.833C764.398 865.897 782.255 866.42 786.878 865.688Z"/><path fill="#F8EADB" d="M646.269 1052.94L906.145 1158.12C943.795 1173.4 986.014 1191.56 1024 1205.68L1024 1280L895.494 1280L837.285 1280L789.858 1250.16C783.958 1246.43 767.414 1235.56 761.699 1233.37L755.044 1229.45C742.204 1219.24 718.28 1206.49 703.651 1197.3C668.553 1175.26 632.049 1154.68 597.114 1132.33L646.489 1132.26L646.416 1126.73L646.392 1121.65L646.269 1052.94Z"/><path fill="#5F99C1" d="M646.489 1132.26C651.775 1133.85 670.555 1145.39 676.608 1148.92C711.594 1169.3 746.495 1190.16 781.471 1210.57C786.677 1213.6 809.287 1228 813.242 1229.57C815.447 1231.02 817.738 1232.63 820.074 1233.82C845.083 1248.69 870.538 1264.72 895.494 1280L837.285 1280L789.858 1250.16C783.958 1246.43 767.414 1235.56 761.699 1233.37L755.044 1229.45C742.204 1219.24 718.28 1206.49 703.651 1197.3C668.553 1175.26 632.049 1154.68 597.114 1132.33L646.489 1132.26Z"/><path fill="#FAC03E" d="M813.242 1229.57C816.118 1228.17 852.153 1229.05 857.988 1229.05L937.417 1228.86C944.415 1228.84 988.957 1227.97 991.667 1229.96L992.104 1231.33C990.067 1234.92 984.481 1233.85 980.857 1233.79C966.339 1233.56 951.798 1233.7 937.275 1233.73L861.91 1233.91C850.566 1233.96 830.895 1234.65 820.074 1233.82C817.738 1232.63 815.447 1231.02 813.242 1229.57Z"/><path fill="#FAC03E" d="M646.392 1121.65C662.889 1121.94 679.388 1122.08 695.888 1122.06C703.281 1122.04 710.691 1121.96 718.083 1121.88C719.709 1121.87 721.039 1122.88 722.131 1123.97L722.446 1125.08C720.048 1128.66 713.858 1127.51 709.956 1127.52C688.774 1127.54 667.59 1126.86 646.416 1126.73L646.392 1121.65Z"/><path fill="#B5A9A6" d="M767.182 1060.44C769.217 1056.06 771.487 1051.43 773.147 1046.92C778.762 1048.72 796.821 1055.04 801.545 1054.59L1024 1122.24L1024 1148.18C977.924 1131.79 931.115 1117.17 884.879 1101.18C855.518 1091.03 825.928 1082 796.648 1071.52C794.195 1068.68 772.4 1062.14 767.182 1060.44Z"/><defs><linearGradient id="gradient_3" gradientUnits="userSpaceOnUse" x1="917.80011" y1="990.65112" x2="953.73871" y2="1088.6001"><stop offset="0" stop-color="#60839E"/><stop offset="1" stop-color="#99A1B5"/></linearGradient></defs><path fill="url(#gradient_3)" d="M1024 1065.95C1017.04 1063.94 1007.06 1061.98 999.843 1060.34L955.543 1050.32L807.054 1017.36C789.539 1013.42 772.055 1009.35 754.603 1005.14C752.316 1004.59 733.759 1000.13 732.12 999.481C734.916 999.218 756.974 1004.78 761.087 1005.78C782.656 1011.15 804.333 1016.09 826.104 1020.58C831.29 1021.61 836.785 1023.15 841.938 1024.29C846.484 1025.29 862.319 1015.39 862.749 1011.42C860.283 1008.82 853.932 1009.2 850.466 1008.32C843.715 1006.61 836.894 1005.25 830.071 1003.86L759.491 989.641C749.963 987.792 739.179 986.339 729.58 984.109L729.356 983.536C733.759 984.563 738.059 984.908 742.489 985.805L796.748 996.307C872.341 1011.58 948.096 1026.03 1024 1039.68L1024 1065.95Z"/><path fill="#5F99C1" d="M757.748 1042.25C750.646 1039.71 735.401 1034.36 728.423 1032.94L727.513 1032.76C731.745 1031.7 786.156 1050.71 794.679 1052.17C795.786 1052.36 800.155 1054.01 801.545 1054.59C796.821 1055.04 778.762 1048.72 773.147 1046.92C771.487 1051.43 769.217 1056.06 767.182 1060.44C772.4 1062.14 794.195 1068.68 796.648 1071.52C791.861 1070.53 768.016 1062.23 762.455 1060.18C748.198 1054.94 726.169 1049.29 713.665 1043.18C714.716 1043.98 744.376 1053.17 748.111 1054.34C751.184 1050.2 754.398 1046.17 757.748 1042.25Z"/><path fill="#792023" d="M0 767.21C4.2396 772.956 10.3717 780.972 14.2571 787.211C14.4835 787.575 14.1788 790.652 14.1136 791.237C16.7427 793.361 18.3237 793.65 19.9113 796.536L19.3458 797.459L16.9809 797.656C23.3117 798.64 29.0934 807.054 32.5157 812.37C38.1702 817.424 47.1186 828.682 51.7603 834.864L51.7618 872.324C51.7601 876.247 51.5711 888.697 52.148 891.865L55.5993 892.207C58.9905 892.281 62.8941 892.462 66.2399 892.411L66.3227 892.051C67.1811 889.008 66.7747 856.49 66.7473 851.029C69.5245 855.21 75.0369 861.822 78.2907 865.959C80.1875 868.094 85.8069 874.108 86.4296 876.769L86.321 891.912L98.7554 891.928C100.442 893.725 102.492 895.454 103.083 897.72L103.582 898.224C106.127 899.312 120.636 918.556 123.95 922.402C125.623 924.091 128.832 926.907 129.439 929.055C133.226 933.397 148.806 950.519 150.714 954.827C157.489 962.61 164.9 971.821 171.287 979.989C173.84 983.095 179.294 989.119 180.19 992.692C184.074 997.23 191.024 1005.82 195.15 1009.5C204.891 1022.51 215.775 1037.44 226.23 1049.78C226.22 1070.39 225.721 1093.7 226.373 1114.09C226.25 1120.61 226.213 1127.14 226.265 1133.66L252.041 1133.64L252.093 1082.59C256.596 1087.3 268.379 1102.71 272.033 1108.27C276.149 1113.95 280.161 1118.95 284.584 1124.41L284.518 1133.21L284.459 1171.3L284.469 1230.01L284.433 1235.45L284.433 1242.22L284.372 1280L271.752 1280L252.328 1280L226.268 1280L0 1280L0 767.21Z"/><path fill="#792023" d="M252.093 1082.59C256.596 1087.3 268.379 1102.71 272.033 1108.27C276.149 1113.95 280.161 1118.95 284.584 1124.41L284.518 1133.21L284.459 1171.3L284.469 1230.01L284.433 1235.45L284.433 1242.22L284.372 1280L271.752 1280L252.328 1280L226.268 1280L226.242 1236.61C234.885 1236.39 243.531 1236.35 252.176 1236.48C252.265 1226.4 252.996 1214.55 252.125 1204.58L251.961 1203.93C252.374 1197.59 252.049 1186.88 252.049 1180.13L252.041 1133.64L252.093 1082.59Z"/><path fill="#8C2324" d="M272.033 1108.27C276.149 1113.95 280.161 1118.95 284.584 1124.41L284.518 1133.21L284.459 1171.3L284.469 1230.01L284.433 1235.45L284.433 1242.22L284.372 1280L271.752 1280L272.033 1108.27Z"/><path fill="#F8EADB" d="M226.242 1236.61C234.885 1236.39 243.531 1236.35 252.176 1236.48L252.328 1280L226.268 1280L226.242 1236.61Z"/><path fill="#8C2324" d="M32.5157 812.37C38.1702 817.424 47.1186 828.682 51.7603 834.864L51.7618 872.324C51.7601 876.247 51.5711 888.697 52.148 891.865L55.5993 892.207C58.9905 892.281 62.8941 892.462 66.2399 892.411C66.6468 894.511 66.995 895.888 65.655 897.737C66.7693 900.144 66.2167 982.497 66.2129 992.033C66.1731 1012.24 66.6989 1034.67 66.1591 1054.62L65.6347 1054.38C62.627 1050.75 55.1736 1038.36 52.3595 1033.84L51.8906 1034C51.6858 1038.79 51.5626 1044.11 51.2437 1048.85C45.2732 1041.41 40.8385 1035.16 34.4042 1027.8C34.4233 1023.32 34.7719 1019.09 33.2342 1014.9C32.1961 1014.3 32.6813 1014.66 31.7848 1013.78C32.5164 1009.23 31.7368 998.626 32.4091 992.063C32.8676 982.21 32.5001 969.369 32.5006 959.331L32.5369 897.571C32.7149 895.995 32.6556 893.896 32.6573 892.258C33.0445 884.244 32.6619 873.102 32.6292 864.9L32.5157 812.37Z"/><path fill="#F8EADB" d="M55.5993 892.207C58.9905 892.281 62.8941 892.462 66.2399 892.411C66.6468 894.511 66.995 895.888 65.655 897.737C66.7693 900.144 66.2167 982.497 66.2129 992.033L52.4217 991.993L52.3832 898.123L52.543 897.623C52.0919 896.265 52.1345 895.349 52.0712 893.938C53.295 892.293 53.0016 892.809 55.5993 892.207Z"/><path fill="#671D23" d="M55.5993 892.207C58.9905 892.281 62.8941 892.462 66.2399 892.411C66.6468 894.511 66.995 895.888 65.655 897.737C61.3387 897.595 56.8724 897.639 52.543 897.623C52.0919 896.265 52.1345 895.349 52.0712 893.938C53.295 892.293 53.0016 892.809 55.5993 892.207Z"/><path fill="#C73B39" d="M51.8906 1034C52.7543 1021.68 51.9775 1002.61 51.8345 989.708L51.7128 926.372C51.7105 921.956 51.2662 901.133 52.3832 898.123L52.4217 991.993L66.2129 992.033C66.1731 1012.24 66.6989 1034.67 66.1591 1054.62L65.6347 1054.38C62.627 1050.75 55.1736 1038.36 52.3595 1033.84L51.8906 1034Z"/><path fill="#D75B46" d="M52.3595 1033.84L53.0159 1032.25C56.2779 1031.45 62.0378 1031.84 65.6351 1031.88C65.6726 1038.82 65.9628 1047.59 65.6347 1054.38C62.627 1050.75 55.1736 1038.36 52.3595 1033.84Z"/><path fill="#8C2324" d="M78.2907 865.959C80.1875 868.094 85.8069 874.108 86.4296 876.769L86.321 891.912L98.7554 891.928C100.442 893.725 102.492 895.454 103.083 897.72L103.582 898.224C104.775 903.104 104.492 922.604 104.525 928.618C104.777 949.85 104.752 971.085 104.45 992.317L104.4 1031.71C104.395 1056.96 104.719 1082.97 104.335 1108.15L104.459 1122.4C98.4443 1113.16 92.448 1103.75 86.0666 1094.78C84.7822 1093.26 80.7982 1089.71 79.1737 1088.19C78.5734 1071.49 78.924 1052.59 78.6349 1035.59C77.1854 979.054 77.0706 922.496 78.2907 865.959Z"/><path fill="#F8EADB" d="M98.7554 891.928C100.442 893.725 102.492 895.454 103.083 897.72L103.582 898.224C104.775 903.104 104.492 922.604 104.525 928.618C104.777 949.85 104.752 971.085 104.45 992.317L86.421 992.192L86.2937 897.426C86.1677 895.715 86.2825 893.655 86.321 891.912L98.7554 891.928Z"/><path fill="#4A2129" d="M98.7554 891.928C100.442 893.725 102.492 895.454 103.083 897.72C98.4754 897.237 91.1093 897.438 86.2937 897.426C86.1677 895.715 86.2825 893.655 86.321 891.912L98.7554 891.928Z"/><path fill="#D75B46" d="M86.9367 1031.47L104.4 1031.71C104.395 1056.96 104.719 1082.97 104.335 1108.15C98.5453 1100.83 91.4786 1092.19 88.3043 1083.38C85.1763 1074.7 86.884 1042.92 86.9367 1031.47Z"/><path fill="#C73B39" d="M86.421 992.192L104.45 992.317L104.4 1031.71L86.9367 1031.47C86.884 1042.92 85.1763 1074.7 88.3043 1083.38C91.4786 1092.19 98.5453 1100.83 104.335 1108.15L104.459 1122.4C98.4443 1113.16 92.448 1103.75 86.0666 1094.78C86.8787 1060.83 85.8261 1025.96 86.421 992.192Z"/><path fill="#8C2324" d="M123.95 922.402C125.623 924.091 128.832 926.907 129.439 929.055C133.226 933.397 148.806 950.519 150.714 954.827C150.727 966.826 150.394 980.651 150.79 992.492C151.214 1005.21 150.85 1018.88 150.769 1031.69C146.879 1031.59 132.789 1031.06 129.465 1031.86L129.298 1106.58C128.185 1119.17 128.77 1141.72 128.651 1155.11L124.481 1151.07C125.368 1074.47 123.962 998.828 123.95 922.402Z"/><path fill="#F8EADB" d="M129.439 929.055C133.226 933.397 148.806 950.519 150.714 954.827C150.727 966.826 150.394 980.651 150.79 992.492L129.432 992.476L129.439 929.055Z"/><path fill="#C73B39" d="M129.432 992.476L150.79 992.492C151.214 1005.21 150.85 1018.88 150.769 1031.69C146.879 1031.59 132.789 1031.06 129.465 1031.86L129.432 992.476Z"/><path fill="#D75B46" d="M129.465 1031.86C132.789 1031.06 146.879 1031.59 150.769 1031.69C150.571 1065.75 150.692 1099.81 151.133 1133.87C145.816 1133.5 134.885 1133.79 129.412 1134.07C129.745 1126.35 129.559 1114.27 129.298 1106.58L129.465 1031.86Z"/><path fill="#8C2324" d="M171.287 979.989C173.84 983.095 179.294 989.119 180.19 992.692C179.605 1005.42 179.93 1020.46 180.018 1033.31C180.069 1066.83 179.92 1100.35 179.57 1133.87C179.553 1157.25 180.188 1183.89 179.483 1206.99C179.389 1214.9 178.777 1224.09 178.833 1231.65L170.71 1222.12L171.095 1034.7C171.079 1023.98 170.991 1013.25 170.83 1002.53C170.746 996.828 170.199 985.191 171.287 979.989Z"/><path fill="#F8EADB" d="M16.9809 797.656C23.3117 798.64 29.0934 807.054 32.5157 812.37L32.6292 864.9C32.6619 873.102 33.0445 884.244 32.6573 892.258C32.6556 893.896 32.7149 895.995 32.5369 897.571L18.7158 897.729L16.1908 897.201C14.8369 895.764 15.1843 894.711 14.9674 892.354C14.4993 891.113 14.3665 802.822 15.3088 798.667L16.9809 797.656Z"/><path fill="#4A2129" d="M14.9674 892.354C20.737 892.339 26.9233 892.427 32.6573 892.258C32.6556 893.896 32.7149 895.995 32.5369 897.571L18.7158 897.729L16.1908 897.201C14.8369 895.764 15.1843 894.711 14.9674 892.354Z"/><path fill="#F8EADB" d="M32.5369 897.571L32.5006 959.331C32.5001 969.369 32.8676 982.21 32.4091 992.063L17.6724 992.064L15.4645 991.556C14.6678 987.606 14.9363 970.067 14.9343 965.349L14.8575 908.995C15.0854 905.683 13.9964 901.095 15.5778 898.579C16.0297 897.86 17.6191 897.893 18.7158 897.729L32.5369 897.571Z"/><path fill="#5F99C1" d="M226.265 1133.66L252.041 1133.64L252.049 1180.13C252.049 1186.88 252.374 1197.59 251.961 1203.93C248 1201.48 230.498 1180.43 226.305 1175.57C226.073 1161.78 226.26 1147.49 226.265 1133.66Z"/><path fill="#D75B46" d="M180.018 1033.31C184.71 1033.32 189.62 1033.41 194.291 1033.32L194.371 1133.82C190.627 1133.8 183.01 1133.54 179.57 1133.87C179.92 1100.35 180.069 1066.83 180.018 1033.31Z"/><path fill="#F8EADB" d="M179.57 1133.87C183.01 1133.54 190.627 1133.8 194.371 1133.82L194.995 1134.6C195.042 1164.17 196.131 1200.64 195.005 1229.74C190.503 1224.08 183.924 1213.47 179.483 1206.99C180.188 1183.89 179.553 1157.25 179.57 1133.87Z"/><path fill="#F8EADB" d="M226.305 1175.57C230.498 1180.43 248 1201.48 251.961 1203.93L252.125 1204.58C252.996 1214.55 252.265 1226.4 252.176 1236.48C243.531 1236.35 234.885 1236.39 226.242 1236.61L226.232 1231.31L226.305 1175.57Z"/><path fill="#FAC03E" d="M252.125 1204.58C252.996 1214.55 252.265 1226.4 252.176 1236.48C243.531 1236.35 234.885 1236.39 226.242 1236.61L226.232 1231.31L252.067 1231.51C252.243 1222.68 252.012 1213.5 252.125 1204.58Z"/><path fill="#C73B39" d="M128.651 1155.11C128.77 1141.72 128.185 1119.17 129.298 1106.58C129.559 1114.27 129.745 1126.35 129.412 1134.07C134.885 1133.79 145.816 1133.5 151.133 1133.87C151.234 1143.82 151.235 1153.77 151.136 1163.72C150.588 1167.7 150.871 1182.8 150.869 1187.6C144.428 1177.43 135.581 1165.27 128.651 1155.11Z"/><path fill="#F8EADB" d="M129.412 1134.07C134.885 1133.79 145.816 1133.5 151.133 1133.87C151.234 1143.82 151.235 1153.77 151.136 1163.72C148.071 1162.73 131.884 1138.27 129.412 1134.07Z"/><path fill="#C73B39" d="M180.19 992.692C184.074 997.23 191.024 1005.82 195.15 1009.5C194.15 1018 194.83 1043.01 194.865 1052.77L194.995 1134.6L194.371 1133.82L194.291 1033.32C189.62 1033.41 184.71 1033.32 180.018 1033.31C179.93 1020.46 179.605 1005.42 180.19 992.692Z"/><path fill="#C73B39" d="M179.483 1206.99C183.924 1213.47 190.503 1224.08 195.005 1229.74C194.885 1238.73 195.046 1247.66 194.948 1256.58C189.601 1248.66 183.636 1239.83 178.833 1231.65C178.777 1224.09 179.389 1214.9 179.483 1206.99Z"/><path fill="#A82D2A" d="M51.8906 1034L52.3595 1033.84C55.1736 1038.36 62.627 1050.75 65.6347 1054.38L66.1591 1054.62L66.1206 1069.46C61.3079 1062.48 56.3479 1055.61 51.2437 1048.85C51.5626 1044.11 51.6858 1038.79 51.8906 1034Z"/><path fill="#A82D2A" d="M15.4645 991.556C14.0137 990.895 13.5527 990.591 12.24 989.756C10.9696 982.882 13.0412 915.042 14.8575 908.995L14.9343 965.349C14.9363 970.067 14.6678 987.606 15.4645 991.556Z"/><path fill="#C73B39" d="M17.6724 992.064L32.4091 992.063C31.7368 998.626 32.5164 1009.23 31.7848 1013.78C26.8344 1005.67 22.4534 1001.79 17.6724 992.064Z"/><path fill="#F8EADB" d="M486.303 1132.55C523.239 1132.26 560.177 1132.18 597.114 1132.33C632.049 1154.68 668.553 1175.26 703.651 1197.3C718.28 1206.49 742.204 1219.24 755.044 1229.45L761.699 1233.37C767.414 1235.56 783.958 1246.43 789.858 1250.16L837.285 1280L689.71 1280L625.093 1280L452.165 1280C450.458 1278.21 448.941 1276.24 447.361 1274.34C436.468 1261.23 425.162 1248.46 414.546 1235.13C414.083 1234.73 410.794 1230.74 410.179 1230.02L356.791 1166.83C347.379 1155.59 337.481 1144.33 328.545 1132.76C363.666 1132.19 399.006 1133.14 434.223 1132.5C451.182 1132.51 469.464 1132.16 486.303 1132.55Z"/><path fill="#F8EADB" d="M328.545 1132.76C363.666 1132.19 399.006 1133.14 434.223 1132.5C463.472 1156.71 495.737 1179.16 525.595 1202.74C536.865 1211.63 549.271 1220.69 560.098 1230.06C561.945 1231.36 564.073 1232.78 565.818 1234.17C569.095 1236.11 572.138 1238.77 575.141 1241.15C591.702 1254.25 608.871 1266.46 625.093 1280L452.165 1280C450.458 1278.21 448.941 1276.24 447.361 1274.34C436.468 1261.23 425.162 1248.46 414.546 1235.13C414.083 1234.73 410.794 1230.74 410.179 1230.02L356.791 1166.83C347.379 1155.59 337.481 1144.33 328.545 1132.76Z"/><path fill="#F8EADB" d="M410.179 1230.02L560.098 1230.06C561.945 1231.36 564.073 1232.78 565.818 1234.17C569.095 1236.11 572.138 1238.77 575.141 1241.15C591.702 1254.25 608.871 1266.46 625.093 1280L452.165 1280C450.458 1278.21 448.941 1276.24 447.361 1274.34C436.468 1261.23 425.162 1248.46 414.546 1235.13C414.083 1234.73 410.794 1230.74 410.179 1230.02Z"/><path fill="#FAC03E" d="M410.179 1230.02L560.098 1230.06C561.945 1231.36 564.073 1232.78 565.818 1234.17C552.964 1235.26 537.139 1234.9 524.019 1234.89L448.838 1234.67C443.664 1234.7 418.872 1234.53 414.546 1235.13C414.083 1234.73 410.794 1230.74 410.179 1230.02Z"/><path fill="#5F99C1" d="M434.223 1132.5C451.182 1132.51 469.464 1132.16 486.303 1132.55C513.235 1152.38 540.914 1171.47 567.646 1191.19C580.382 1200.69 593.224 1210.04 606.17 1219.25C609.056 1221.32 618.885 1228.64 621.304 1229.82C623.039 1231.18 625.353 1233.11 627.159 1234.26C646.973 1250.04 671.011 1264.55 689.71 1280L625.093 1280C608.871 1266.46 591.702 1254.25 575.141 1241.15C572.138 1238.77 569.095 1236.11 565.818 1234.17C564.073 1232.78 561.945 1231.36 560.098 1230.06C549.271 1220.69 536.865 1211.63 525.595 1202.74C495.737 1179.16 463.472 1156.71 434.223 1132.5Z"/><path fill="#F8EADB" d="M621.304 1229.82C626.681 1228.94 654.903 1229.05 661.892 1229.1C692.421 1229.34 724.671 1228.59 755.044 1229.45L761.699 1233.37C767.414 1235.56 783.958 1246.43 789.858 1250.16L837.285 1280L689.71 1280C671.011 1264.55 646.973 1250.04 627.159 1234.26C625.353 1233.11 623.039 1231.18 621.304 1229.82Z"/><path fill="#FAC03E" d="M621.304 1229.82C626.681 1228.94 654.903 1229.05 661.892 1229.1C692.421 1229.34 724.671 1228.59 755.044 1229.45L761.699 1233.37C753.782 1234.4 731.211 1234.03 721.859 1234.14C690.293 1234.41 658.726 1234.44 627.159 1234.26C625.353 1233.11 623.039 1231.18 621.304 1229.82Z"/><path fill="#D75B46" d="M246.375 1032.5L538.377 1033.74L606.337 1033.78C616.11 1033.78 638.196 1034.29 646.912 1032.52C646.158 1037.77 646.315 1047.28 646.269 1052.94L646.392 1121.65L646.416 1126.73L646.489 1132.26L597.114 1132.33C560.177 1132.18 523.239 1132.26 486.303 1132.55C469.464 1132.16 451.182 1132.51 434.223 1132.5C399.006 1133.14 363.666 1132.19 328.545 1132.76L280.919 1074.97C269.689 1061.53 256.612 1046.5 246.375 1032.5Z"/><path fill="#F8EADB" d="M51.2196 589.256C51.238 587.371 51.2855 586.878 51.582 585.013C53.3096 583.793 54.6742 584.227 57.1444 584.206L210.691 587.937L210.686 593.143C210.87 624.342 211.435 660.092 210.61 691.179C210.614 692.877 210.822 695.042 210.088 696.464L54.2304 694.13L51.9365 693.736C50.8269 691.962 51.2316 691.034 51.2413 688.667C50.4295 667.194 51.3621 643.844 50.8386 622.185C50.7155 617.091 50.515 592.862 51.2196 589.256Z"/><path fill="#4A2129" d="M51.2413 688.667C103.703 689.579 158.519 689.383 210.61 691.179C210.614 692.877 210.822 695.042 210.088 696.464L54.2304 694.13L51.9365 693.736C50.8269 691.962 51.2316 691.034 51.2413 688.667Z"/><path fill="#4A2129" d="M51.2196 589.256C51.238 587.371 51.2855 586.878 51.582 585.013C53.3096 583.793 54.6742 584.227 57.1444 584.206L210.691 587.937L210.686 593.143C158.123 591.655 103.72 589.98 51.2196 589.256Z"/><path fill="#F8EADB" d="M54.2304 694.13L210.088 696.464C211.313 699.307 210.834 783.915 210.399 792.491L210.463 796.996L53.1459 797.004L49.5941 796.709C49.7821 793.721 49.3009 793.871 50.7567 791.811C51.3917 786.755 51.0421 771.211 51.0426 765.529L51.0547 713.347C51.0582 710.125 50.7406 696.877 51.6266 694.528L54.2304 694.13Z"/><path fill="#4A2129" d="M50.7567 791.811C103.972 791.732 157.187 791.959 210.399 792.491L210.463 796.996L53.1459 797.004L49.5941 796.709C49.7821 793.721 49.3009 793.871 50.7567 791.811Z"/><path fill="#F8EADB" d="M53.1459 797.004L210.463 796.996C211.914 827.285 210.017 861.571 210.836 892.389L200.241 892.367C193.121 891.791 182.392 892.059 175.108 892.057L130.823 892.118C109.315 867.24 74.1937 825.629 51.6876 799.063C51.6225 798.616 51.5573 798.168 51.4922 797.721L53.1459 797.004Z"/><path fill="#792023" d="M284.518 1133.21C286.24 1133.13 289.718 1132.76 290.753 1133.89C297.337 1141.04 304.798 1151.05 310.634 1158.7C313.695 1162.06 345.468 1202.18 346.359 1204.75C346.326 1212.14 346.627 1223.09 346.152 1230.18L346.231 1231.97C345.48 1246.03 345.756 1265.75 345.956 1280L310.734 1280L284.372 1280L284.433 1242.22L284.433 1235.45L284.469 1230.01L284.459 1171.3L284.518 1133.21Z"/><path fill="#5F99C1" d="M284.469 1230.01L310.088 1230.03L310.118 1235.4L310.7 1270.85L310.734 1280L284.372 1280L284.433 1242.22L284.433 1235.45L284.469 1230.01Z"/><path fill="#F8EADB" d="M284.433 1242.22C288.714 1246.91 307.035 1268 310.7 1270.85L310.734 1280L284.372 1280L284.433 1242.22Z"/><path fill="#B67F6E" d="M284.469 1230.01L310.088 1230.03L310.118 1235.4C301.98 1235.17 292.663 1235.42 284.433 1235.45L284.469 1230.01Z"/><path fill="#5F99C1" d="M284.459 1171.3C292.523 1181.21 302.268 1189.95 310.127 1199.93L310.088 1230.03L284.469 1230.01L284.459 1171.3Z"/><path fill="#F8EADB" d="M284.518 1133.21C286.24 1133.13 289.718 1132.76 290.753 1133.89C297.337 1141.04 304.798 1151.05 310.634 1158.7C310.664 1172.44 310.495 1186.19 310.127 1199.93C302.268 1189.95 292.523 1181.21 284.459 1171.3L284.518 1133.21Z"/><path fill="#8C2324" d="M33.1575 589.704C35.1843 589.756 48.2617 583.689 50.9686 582.475L51.4001 583.603L57.1444 584.206C54.6742 584.227 53.3096 583.793 51.582 585.013C51.2855 586.878 51.238 587.371 51.2196 589.256C50.515 592.862 50.7155 617.091 50.8386 622.185C51.3621 643.844 50.4295 667.194 51.2413 688.667C51.2316 691.034 50.8269 691.962 51.9365 693.736L54.2304 694.13L51.6266 694.528C50.7406 696.877 51.0582 710.125 51.0547 713.347L51.0426 765.529C51.0421 771.211 51.3917 786.755 50.7567 791.811C49.3009 793.871 49.7821 793.721 49.5941 796.709C46.0827 791.839 37.3167 782.184 33.1115 777.11C33.2046 761.934 34.0022 739.271 33.0101 724.712C32.8708 714.461 32.8383 704.208 32.9126 693.955C21.94 693.863 10.9686 693.663 0 693.354L0 688.28L0 606.476L0 587.957C4.66481 588.067 30.7827 588.098 33.1575 589.704Z"/><path fill="#F8EADB" d="M0 587.957C4.66481 588.067 30.7827 588.098 33.1575 589.704L32.5734 592.269C33.4698 623.75 33.0083 657.118 33.0657 688.724L32.9126 693.955C21.94 693.863 10.9686 693.663 0 693.354L0 688.28L0 606.476L0 587.957Z"/><path fill="#EA9F63" d="M0 587.957C4.66481 588.067 30.7827 588.098 33.1575 589.704L32.5734 592.269C21.7251 596.032 10.5264 601.64 0 606.476L0 587.957Z"/><path fill="#4A2129" d="M0 688.28C11.0203 688.53 22.0426 688.678 33.0657 688.724L32.9126 693.955C21.94 693.863 10.9686 693.663 0 693.354L0 688.28Z"/><path fill="#F8EADB" d="M201.592 897.34L210.713 897.414L210.787 955.141C210.783 964.596 211.103 976.873 210.586 986.02C185.645 958.107 159.573 926.307 135.434 897.521C157.489 897.28 179.625 897.644 201.592 897.34Z"/><path fill="#F8EADB" d="M0 693.354C10.9686 693.663 21.94 693.863 32.9126 693.955C32.8383 704.208 32.8708 714.461 33.0101 724.712C32.1384 740.649 32.6166 760.688 32.5862 776.824C21.5505 764.059 10.6875 751.146 0 738.089L0 693.354Z"/><path fill="#D75B46" d="M226.607 1050.76C235.403 1060.64 242.558 1072.83 252.093 1082.59L252.041 1133.64L226.265 1133.66C226.213 1127.14 226.25 1120.61 226.373 1114.09C227.144 1109.44 226.852 1099.35 226.885 1094.06C227.108 1079.63 227.016 1065.19 226.607 1050.76Z"/><path fill="#5F99C1" d="M346.231 1231.97L350.104 1235.72C352.564 1239.13 373.594 1263 376.298 1265.19L376.559 1265.66C376.434 1270.44 376.394 1275.22 376.441 1280L345.956 1280C345.756 1265.75 345.48 1246.03 346.231 1231.97Z"/><path fill="#F8EADB" d="M52.2545 835.896C56.2966 840.147 62.8279 846.67 66.2729 851.075C66.2872 864.571 66.0933 878.605 66.3227 892.051L66.2399 892.411C62.8941 892.462 58.9905 892.281 55.5993 892.207L52.148 891.865C53.1112 875.639 52.3577 852.659 52.2545 835.896Z"/><path fill="#792023" d="M376.849 1240.44C381.293 1247 387.923 1254.43 392.858 1261C397.862 1266.93 402.829 1273.66 407.351 1280L393.153 1280L376.441 1280C376.394 1275.22 376.434 1270.44 376.559 1265.66C377.147 1261.55 376.843 1245.4 376.849 1240.44Z"/><path fill="#F8EADB" d="M367.563 1229.86C369.155 1231.61 370.718 1233.4 372.251 1235.2L376.362 1239.65C376.348 1247.93 376.523 1256.97 376.298 1265.19C373.594 1263 352.564 1239.13 350.104 1235.72L346.231 1231.97L346.152 1230.18C353.29 1230.13 360.427 1230.03 367.563 1229.86Z"/><path fill="#FAC03E" d="M367.563 1229.86C369.155 1231.61 370.718 1233.4 372.251 1235.2C365.552 1235.12 356.634 1234.81 350.104 1235.72L346.231 1231.97L346.152 1230.18C353.29 1230.13 360.427 1230.03 367.563 1229.86Z"/><path fill="#4A2129" d="M200.241 892.367L210.836 892.389C210.816 895.212 211.274 894.809 209.897 896.586C206.387 897.613 205.252 896.586 201.592 897.34C179.625 897.644 157.489 897.28 135.434 897.521C134.072 896.699 131.943 893.896 130.817 892.549C152.779 892.366 178.707 893.331 200.241 892.367Z"/><path fill="#F8EADB" d="M346.359 1204.75C354.239 1212.85 360.601 1221 367.563 1229.86C360.427 1230.03 353.29 1230.13 346.152 1230.18C346.627 1223.09 346.326 1212.14 346.359 1204.75Z"/><path fill="#F8EADB" d="M86.4296 876.769C90.9544 881.941 94.8527 886.26 98.7554 891.928L86.321 891.912L86.4296 876.769Z"/></svg>